<?xml version="1.0" encoding="utf-8"?>
<!-- Generator: Adobe Illustrator 21.1.0, SVG Export Plug-In . SVG Version: 6.00 Build 0)  -->
<svg version="1.1" id="Camada_1" xmlns="http://www.w3.org/2000/svg" xmlns:xlink="http://www.w3.org/1999/xlink" x="0px" y="0px"
	 viewBox="0 0 120 120" style="enable-background:new 0 0 120 120;" xml:space="preserve">
<style type="text/css">
	.st0{fill:url(#SVGID_1_);}
	.st1{fill:url(#SVGID_2_);}
</style>
<linearGradient id="SVGID_1_" gradientUnits="userSpaceOnUse" x1="70.2122" y1="87.7674" x2="70.4256" y2="87.7674" gradientTransform="matrix(1 0 0 1 0 -58.2079)">
	<stop  offset="0" style="stop-color:#FFFFFF"/>
	<stop  offset="1" style="stop-color:#070308"/>
</linearGradient>
<path class="st0" d="M70.4,29.3c-0.3,0,0,0.3-0.3,0.5C69.8,30.1,70.4,29.5,70.4,29.3z"/>
<linearGradient id="SVGID_2_" gradientUnits="userSpaceOnUse" x1="59.9935" y1="165.3709" x2="59.9935" y2="95.3763" gradientTransform="matrix(1 0 0 1 0 -58.2079)">
	<stop  offset="0" style="stop-color:#E5BE2D"/>
	<stop  offset="1" style="stop-color:#D37F41"/>
</linearGradient>
<path class="st1" d="M73.6,113.5c-0.5,1.6-1.3,3.2-2.4,4.8c-0.3,0.5-0.8,1.1-1.1,1.9c0,0.3-0.3,0.3-0.5,0.3H54.1
	c-1.1,0.3-2.1-0.3-2.4-1.3c-1.1-1.3-2.1-2.7-2.9-4.3c-0.8-1.3-1.6-2.9-2.1-4.5c-0.5-1.1-0.8-2.1-1.1-3.2c-0.3-1.1-0.8-2.4-0.8-3.5
	c-0.3-0.8-0.3-1.6-0.5-2.4c-0.3-1.9-0.3-3.7,0-5.6c0-1.1,0.3-1.9,0.5-2.9c0.3-1.1,0.3-2.1,0.5-3.2c0.3-1.1,0.8-2.4,1.1-3.5
	c0.5-1.3,1.1-2.4,1.6-3.7c0.5-0.8,0.8-1.9,1.3-2.7s1.1-2.1,1.9-3.2c0.8-1.1,1.6-2.4,2.4-3.5c1.3-1.9,2.9-4,4.3-5.9
	c0.3-0.5,0.8-1.1,1.3-1.6c0.3,0.8,0.3,1.3,0.5,2.1c0.3,0.8,0.5,1.3,0.8,2.1c0.8,1.6,1.6,3.2,2.7,4.8c0.5,0.8,1.1,1.6,1.6,2.4
	c0.5,0.8,1.1,1.3,1.6,2.1c1.1,1.6,2.1,2.9,3.2,4.3c1.3,1.9,2.7,4,3.5,6.1c0.5,1.1,0.8,2.1,1.3,3.2c0.3,0.8,0.5,1.9,0.8,2.7
	c0.3,0.8,0.3,1.6,0.5,2.4c0.3,1.3,0.3,2.4,0.3,3.7c0,1.1,0,2.1-0.3,3.2c0,0.8-0.3,1.9-0.5,2.7c-0.3,0.8-0.5,1.9-0.8,2.7
	C74.1,110.9,74.1,112.5,73.6,113.5z M96.5,90.1c0,1.3-0.3,2.7-0.5,4c-0.3,1.9-0.8,3.7-1.6,5.3c-0.3,0.8-3.5,6.7-4.8,8.8
	c0,0-5.1,7.5-7.5,9.3c-0.8,0.8-1.6,1.6-2.4,2.4c0,0-0.3,0.3-0.5,0h-4.3c-0.3,0-0.8,0-1.1,0c-0.3,0-0.3,0-0.3-0.3
	c0.8-1.3,1.6-2.7,2.1-4.3c0.5-1.3,1.1-2.4,1.3-3.7c0.3-1.1,0.8-2.1,0.8-3.5c0-1.3,0.3-1.9,0.5-2.7c0.3-1.6,0.3-3.5,0.3-5.1
	c0-0.5,0-0.8,0-1.3c0-0.5,0-1.3-0.3-1.9c0-0.8-0.3-1.6-0.5-2.4c-0.3-1.3-0.8-2.7-1.3-4c-0.3-1.1-0.8-2.1-1.3-3.2
	c-0.8-1.9-1.9-3.7-2.9-5.3l-2.4-3.5l-3.2-5.1c-1.1-1.9-2.1-3.7-3.2-5.6c-0.5-1.3-1.1-2.4-1.6-3.7c-0.5-1.3-0.8-2.7-1.3-4
	c-1.1,0.8-1.9,1.6-2.7,2.4c-1.6,1.9-3.2,4-4.8,5.9c-1.6,1.9-2.7,3.7-4,5.9c-1.1,1.6-2.1,3.5-2.9,5.1c-0.8,1.6-1.3,2.9-2.1,4.5
	c-0.5,1.3-1.1,2.7-1.3,4c-0.3,1.3-0.8,2.7-0.8,3.7c-0.5,2.4-0.8,4.8-0.5,7.5c0,1.3,0.3,2.7,0.5,4c0.3,1.1,0.5,2.1,0.8,3.2
	s0.5,1.9,0.8,2.9c0.5,1.1,0.8,2.1,1.1,2.9c0.3,0.8,0.8,1.6,1.1,2.4c0.8,1.3,1.6,2.9,2.4,4.3l1.1,1.6c0,0-0.3,0-0.5,0h-5.3
	c-0.3,0-0.8,0-0.8-0.3c-1.6-1.3-3.2-2.7-4.5-4.3l-1.6-1.9c-1.3-1.3-2.4-2.9-3.5-4.5c-1.1-1.6-1.9-3.2-2.7-4.8
	c-0.5-0.8-0.8-1.6-1.3-2.4c-0.8-1.9-6-14.1-5.3-25.3c-0.1-8,5.9-19.5,6.7-20.8c1.3-2.1,2.7-4.3,3.7-6.4l0,0l0,0v-0.3
	c0.3-0.5,0.8-1.3,1.1-1.9c0,0,0,0,0-0.3c0-0.3,0.3-0.5,0.5-0.8l0.3-0.3c0-0.3,0.3-0.5,0.5-0.8l0.8-1.3c0.3-0.3,0.5-0.8,0.8-1.1l0,0
	l2.7-4c1.1-1.6,2.1-3.5,3.5-5.1c0.5-0.8,1.1-1.6,1.3-2.1l1.9-3.2c1.6-2.4,2.9-5.1,4.3-7.7c1.1-1.9,1.9-3.5,2.4-5.1
	c0.3-1.1,0.5-2.1,0.8-3.5c0.3-1.6,0.3-3.2,0.5-4.5c0-0.8,0.3-1.6,0.5-2.7V5.2c0,0,0.3,0,0.3,0.3c1.1,1.3,1.9,2.7,2.4,4
	c0.8,1.3,1.1,2.7,1.6,4c0.8,1.9,1.3,3.7,2.1,5.6c0.5,1.6,0.8,3.2,1.1,4.8c0.3,2.1,0.5,4.5,0.3,6.7c0,2.1-0.5,4-1.1,5.9
	c-0.3,1.1-0.8,1.9-1.1,2.9v0.3h0.3c2.1-0.8,4-2.1,5.3-4.3c1.1-1.3,2.1-2.9,2.7-4.5c0-0.3,0-0.5,0.3-0.5c0.3,0,0-0.3,0.3-0.5l0,0
	c0.3,0,0-0.3,0.3-0.5c0.3-0.3,0.3-0.8,0.3-1.3c0.3-1.6,0.8-2.9,1.1-4.5c0.5-0.3,0.5-0.3,0.8,0c1.1,0.8,2.1,1.9,2.9,3.2
	c0.5,0.8,1.1,1.9,1.3,2.7c0.3,0.3,0.3,0.8,0.5,1.3c0.3,0.8,0.5,1.6,0.8,2.4c0.3,1.1,0.5,2.4,0.8,3.5c0.3,1.1,0.5,2.9,1.1,4.3
	c0.3,0.8,0.3,1.6,0.5,2.7c0.3,1.1,0.5,2.4,0.5,3.5c0,0.8,0.3,1.3,0.5,1.9c0,0.3,0,0.3,0,0.5l0,0c0.3,0.5,0.3,1.3,0.5,1.9
	c0.3,1.6,0.8,2.9,1.3,4.5c0.8,2.1,1.9,4,3.2,5.9C88,63.7,97.7,77.5,96.5,90.1z M34.9,48.7L34.9,48.7z M70.1,30.3L70.1,30.3
	C70.1,30.9,70.4,30.6,70.1,30.3L70.1,30.3z M80.8,49.5L80.8,49.5z M81.3,50.6L81.3,50.6L81.3,50.6L81.3,50.6L81.3,50.6z"/>
</svg>
