<svg xmlns="http://www.w3.org/2000/svg" xmlns:xlink="http://www.w3.org/1999/xlink" viewBox="0 0 78.58 56.61"><defs><style>.cls-1{fill:#ed863a;}.cls-2{fill:#f9c32a;}.cls-3{fill:url(#Gradiente_sem_nome);}.cls-4{fill:url(#Gradiente_sem_nome_20);}</style><linearGradient id="Gradiente_sem_nome" x1="43.14" y1="8.52" x2="43.22" y2="8.52" gradientUnits="userSpaceOnUse"><stop offset="0" stop-color="#fff"/><stop offset="1"/></linearGradient><linearGradient id="Gradiente_sem_nome_20" x1="39.28" y1="37.61" x2="39.28" y2="11.37" gradientUnits="userSpaceOnUse"><stop offset="0" stop-color="#f0c61f"/><stop offset="1" stop-color="#ed8538"/></linearGradient></defs><title>logo</title><g id="Camada_1" data-name="Camada 1"><path class="cls-1" d="M25.6,47.13c0,.4,0,.77-.05,1.13q-.08,2.51-.17,5c0,.27,0,.28-.28.28H23.82c-.12,0-.15,0-.14-.15q.12-2.36.22-4.73c0-1,.08-2,.13-3a1.74,1.74,0,0,1,.28-1,.85.85,0,0,1,.62-.33,1.3,1.3,0,0,1,1.48.93c.36.84.68,1.69,1,2.54L28.25,50l0,0c.34-.85.67-1.7,1-2.55s.58-1.53.93-2.26a1.38,1.38,0,0,1,.87-.8,1.2,1.2,0,0,1,1.09.17,1,1,0,0,1,.32.64,19.34,19.34,0,0,1,.12,2c.05,1.12.09,2.24.14,3.36,0,.9.09,1.8.12,2.7,0,.27,0,.27-.27.27H31.29c-.13,0-.14,0-.15-.15,0-.65,0-1.3-.07-1.95,0-1-.06-2.09-.1-3.13,0-.41,0-.81-.07-1.23l-.33.89c-.32.89-.64,1.77-1,2.66a6.62,6.62,0,0,1-.48,1.2.94.94,0,0,1-1.08.48.87.87,0,0,1-.63-.52c-.41-.89-.71-1.83-1.07-2.75-.24-.62-.47-1.24-.7-1.86Z"/><path class="cls-1" d="M15.15,49q0,2.19,0,4.39c0,.1,0,.15-.14.15H13.47c-.13,0-.15,0-.16-.16,0-1.21,0-2.41,0-3.62,0-.08,0-.13-.11-.13h-3c-.14,0-.18,0-.18.19,0,1.17,0,2.34,0,3.51,0,.2,0,.2-.21.2H8.38c-.15,0-.19,0-.19-.19q0-3.74,0-7.49c0-.42,0-.85,0-1.27,0-.11,0-.15.14-.15H9.89c.12,0,.14,0,.14.16,0,1.12,0,2.24,0,3.37,0,.14,0,.19.18.19,1,0,2,0,3,0,.11,0,.13,0,.13-.13q0-1.64,0-3.29c0-.27,0-.27.28-.27H15c.15,0,.18,0,.18.19,0,1.46,0,2.91,0,4.37Z"/><path class="cls-1" d="M41.27,53.55a.8.8,0,0,1-.31,0H39.5a.15.15,0,0,1-.18-.13c-.13-.43-.25-.87-.4-1.29-.08-.24-.14-.48-.22-.71a.14.14,0,0,0-.16-.11H35.69c-.08,0-.12,0-.15.1-.11.37-.22.74-.33,1.11s-.18.58-.26.88a.18.18,0,0,1-.2.16h-1.6c-.11,0-.14,0-.1-.15l.43-1.27c.16-.48.34-.95.49-1.42s.32-.93.48-1.39L34.91,48c.27-.79.53-1.58.81-2.37a1.79,1.79,0,0,1,.71-1,1.39,1.39,0,0,1,1.42-.05,1.79,1.79,0,0,1,.82,1.11c.16.47.32.95.48,1.43s.4,1.23.61,1.84c.09.26.2.53.28.79s.26.8.39,1.2l.73,2.19a.91.91,0,0,0,.09.27Zm-4.14-7.27a.94.94,0,0,0-.14.38c-.19.62-.38,1.24-.56,1.86-.11.36-.22.73-.32,1.1,0,.1-.13.2-.06.29s.2,0,.3,0H38.1c.07,0,.16,0,.12-.11l-.27-.87-.53-1.74Z"/><path class="cls-1" d="M19.38,51.33H18a.19.19,0,0,0-.23.17c-.19.65-.39,1.3-.58,1.95,0,.09-.06.13-.16.13H15.41c-.12,0-.14,0-.1-.14.31-.88.6-1.76.91-2.65l.86-2.5c.26-.75.52-1.5.76-2.25A4.12,4.12,0,0,1,18.32,45a1.42,1.42,0,0,1,2.31.07,4.74,4.74,0,0,1,.44,1.06c.37,1.1.74,2.2,1.11,3.31l.65,1.93.7,2.12c0,.1,0,.13-.09.13H21.76a.15.15,0,0,1-.18-.13c-.19-.64-.39-1.28-.58-1.92a.22.22,0,0,0-.27-.2C20.29,51.34,19.83,51.33,19.38,51.33Zm0-5h0c-.14.45-.29.91-.42,1.36l-.63,2.08c0,.15,0,.17.13.17h1.89c.18,0,.18,0,.13-.17l-.72-2.36Z"/><path class="cls-2" d="M41.27,53.55v-.17a2,2,0,0,0,.06-.51c0-.6.06-1.19.11-1.78,0-.33,0-.66.05-1s0-.55,0-.81c.09-.86.11-1.73.17-2.59,0-.52.09-1,.09-1.55a.93.93,0,0,1,.1-.45.64.64,0,0,1,.91-.16,1.58,1.58,0,0,1,.48.71c.22.49.44,1,.66,1.47l.29.66,1,2.32.53,1.22s0,.07.07.07,0,0,.06-.08c.24-.52.48-1,.72-1.57.31-.69.62-1.38.93-2.07s.51-1.12.77-1.67a7.51,7.51,0,0,1,.42-.84.7.7,0,0,1,1.08-.11.62.62,0,0,1,.1.27,3.5,3.5,0,0,1,.06.53c0,.52.06,1,.08,1.57,0,.9.12,1.79.16,2.69,0,.51.06,1,.08,1.54,0,.74.08,1.47.12,2.21,0,.14,0,.15-.16.15s-.43,0-.64,0-.18,0-.18-.17c0-.69-.07-1.38-.11-2.07s-.07-1.38-.12-2.07c0-.48,0-1-.08-1.44s-.07-1.14-.1-1.71c0,0,0-.07,0-.15L48.56,47,48,48.35l-.55,1.24-.79,1.79c-.1.24-.21.47-.33.7a.52.52,0,0,1-.89,0,3.13,3.13,0,0,1-.23-.44c-.18-.41-.34-.82-.54-1.22s-.43-1-.66-1.45c-.32-.68-.6-1.38-.91-2.07-.13-.3-.27-.6-.43-.9l0,.67c-.06,1-.1,2-.17,2.94,0,.46,0,.92-.07,1.38,0,.69-.08,1.39-.13,2.08a2.16,2.16,0,0,0,0,.36c0,.07,0,.09-.1.09A3.86,3.86,0,0,1,41.27,53.55Z"/><path class="cls-1" d="M1.81,49a9.75,9.75,0,0,1,.14-2,3.33,3.33,0,0,1,.78-1.76,2.49,2.49,0,0,1,1.15-.68,7.7,7.7,0,0,1,2.91-.14,8.48,8.48,0,0,1,1,.17c.1,0,.13.07.12.17,0,.38-.09.77-.13,1.15,0,.09,0,.11-.13.1L6.4,45.95A4.39,4.39,0,0,0,5,46a1.56,1.56,0,0,0-1.19,1.4,13.12,13.12,0,0,0-.05,2.84,2,2,0,0,0,.49,1.31A1.55,1.55,0,0,0,5,52a4.59,4.59,0,0,0,1.33.09A11.76,11.76,0,0,0,7.67,52c.08,0,.1,0,.11.09,0,.41.09.81.14,1.22,0,.06,0,.11-.08.12a9.33,9.33,0,0,1-1.21.19,9.11,9.11,0,0,1-2,0,3.16,3.16,0,0,1-1.72-.68,2.76,2.76,0,0,1-.83-1.4A9.05,9.05,0,0,1,1.81,49Z"/><path class="cls-2" d="M57.78,45.82c0,.37,0,.71,0,1.05q0,3.13,0,6.26a2.1,2.1,0,0,0,0,.27c0,.15-.06.18-.18.18H57c-.09,0-.14,0-.14-.13q0-4.19,0-8.38a.64.64,0,0,1,.2-.52.75.75,0,0,1,.83,0,1.73,1.73,0,0,1,.52.62c.28.42.54.85.8,1.29.38.65.81,1.27,1.19,1.92s.93,1.49,1.4,2.23l1,1.56.06.08c0-.18,0-.33,0-.47q0-3.53,0-7.06c0-.21,0-.21.2-.2h.57c.11,0,.15,0,.15.14,0,.36,0,.71,0,1.07q0,3.44,0,6.89c0,.17,0,.33,0,.5a.62.62,0,0,1-1,.49,1.85,1.85,0,0,1-.61-.7l-1.41-2.28-1.37-2.22-1-1.64c-.16-.26-.32-.53-.48-.79Z"/><path class="cls-2" d="M69.76,49.09a9.31,9.31,0,0,1,.07-1.57,4.45,4.45,0,0,1,.51-1.82,2.37,2.37,0,0,1,1.43-1.11,6,6,0,0,1,2.36-.14,2.84,2.84,0,0,1,1.31.44,2.4,2.4,0,0,1,.87,1,4.6,4.6,0,0,1,.33,1.15,13.11,13.11,0,0,1,.13,2.63,8.89,8.89,0,0,1-.16,1.48A3.51,3.51,0,0,1,76,52.68a2.2,2.2,0,0,1-1,.73,5.41,5.41,0,0,1-2.46.2,3.66,3.66,0,0,1-1.16-.32,2.26,2.26,0,0,1-1-.95,4.19,4.19,0,0,1-.46-1.48A10.14,10.14,0,0,1,69.76,49.09Zm6,0a9.5,9.5,0,0,0-.13-2.16,2.18,2.18,0,0,0-.49-1,2.11,2.11,0,0,0-1.53-.62,4.14,4.14,0,0,0-1,0,2,2,0,0,0-1.15.6,2.62,2.62,0,0,0-.56,1.57,16,16,0,0,0-.06,2.15A6.64,6.64,0,0,0,71,51.49a1.87,1.87,0,0,0,.53.84,1.93,1.93,0,0,0,1,.45,3.91,3.91,0,0,0,1.8-.11,1.72,1.72,0,0,0,1.06-1,4.25,4.25,0,0,0,.3-1.54C75.76,49.8,75.74,49.42,75.74,49Z"/><path class="cls-2" d="M51.14,49c0-.93,0-1.86,0-2.78a1.56,1.56,0,0,1,1-1.52,2.88,2.88,0,0,1,1-.21c1,0,2,0,3,0,.14,0,.2,0,.19.19a2.34,2.34,0,0,0,0,.42c0,.14,0,.18-.18.18H53.6a2.33,2.33,0,0,0-.88.17.86.86,0,0,0-.51.71,16.61,16.61,0,0,0-.07,2.26c0,.07,0,.08.09.08H56c.14,0,.2,0,.19.18a4.84,4.84,0,0,0,0,.5c0,.1,0,.13-.13.13H52.33c-.12,0-.2,0-.19.18,0,.61,0,1.23,0,1.84a2.12,2.12,0,0,0,.14.81.74.74,0,0,0,.42.42,2.66,2.66,0,0,0,.81.17c.87.05,1.75,0,2.62,0,.23,0,.22,0,.2.25a3.06,3.06,0,0,0,0,.37c0,.11,0,.14-.14.15-.57,0-1.14,0-1.71,0-.42,0-.84,0-1.26,0a3.14,3.14,0,0,1-1.34-.34,1.5,1.5,0,0,1-.72-1,3.55,3.55,0,0,1-.06-.81q0-1.2,0-2.39Z"/><path class="cls-2" d="M67.5,49.45c0,1.32,0,2.63,0,3.95,0,.12,0,.18-.15.17h-.67c-.11,0-.17,0-.17-.17,0-1.75,0-3.49,0-5.24,0-.89,0-1.78,0-2.67,0-.16-.05-.2-.2-.2H64.19c-.13,0-.16,0-.16-.16a4.71,4.71,0,0,0,0-.52c0-.12,0-.15.15-.15h5.66c.12,0,.16,0,.15.15s0,.35,0,.52,0,.15-.16.15h-2c-.39,0-.32,0-.32.33C67.5,46.9,67.5,48.18,67.5,49.45Z"/><path class="cls-1" d="M23.1,41.15a2,2,0,0,1-.31-.23s-.06,0-.08,0,0,.06,0,.08a2.77,2.77,0,0,1,.8,1.48c0,.08,0,.1-.08.1h-.68c-.07,0-.12,0-.14-.09-.06-.29-.2-.55-.25-.84s-.05-.23-.28-.23H20.91c-.1,0-.13,0-.1-.12s.09-.31.14-.46.09-.07.14-.07l1.18,0a.62.62,0,0,1,.27.09s.07,0,.09,0,0,0-.06-.06a1,1,0,0,0-.37-.11c-.08,0-.11,0-.13-.12-.16-.53-.32-1.06-.48-1.59a.51.51,0,0,1,0-.31c.05-.16.11-.32.18-.48s.18-.21.31,0a2,2,0,0,1,.27.63c.16.54.35,1.07.51,1.61C22.93,40.63,23,40.88,23.1,41.15Z"/><path class="cls-1" d="M18.3,40.24c0-.71,0-1.41,0-2.12,0-.14,0-.2.18-.19a3.71,3.71,0,0,0,.5,0c.13,0,.18,0,.17.17,0,.68,0,1.36,0,2s0,1.51,0,2.26c0,.14-.05.19-.18.19H18.4c-.12,0-.1-.08-.1-.15,0-.41,0-.82,0-1.23s0-.64,0-1Z"/><path class="cls-1" d="M24.75,40.24c0,.72,0,1.44,0,2.17,0,.13,0,.18-.17.18H24c-.07,0-.09,0-.09-.09s0-.22,0-.33q0-2,0-4c0-.12,0-.18.16-.2l.56-.06c.11,0,.13,0,.13.12,0,.73,0,1.47,0,2.2Z"/><path class="cls-1" d="M7.68,42.57a2,2,0,0,1-1-.14.89.89,0,0,1-.47-.9c0-1.14,0-2.27,0-3.41,0-.15,0-.2.2-.19a3,3,0,0,0,.49,0c.14,0,.18,0,.18.17,0,.46,0,.92,0,1.38,0,.62,0,1.24,0,1.85A1.19,1.19,0,0,0,7.68,42.57Z"/><path class="cls-1" d="M10.89,42.57a1.49,1.49,0,0,1-1.37-.41,1.58,1.58,0,0,1-.32-1.07c0-1,0-2,0-3,0-.11,0-.16.15-.16h.6c.11,0,.16,0,.12.16a.43.43,0,0,0,0,.14q0,1.45,0,2.91a1.75,1.75,0,0,0,.24,1,1.08,1.08,0,0,0,.56.45Z"/><path class="cls-1" d="M2.33,42.57H2c-.09,0-.12,0-.09-.12.19-.56.37-1.13.56-1.69l.73-2.18a1.65,1.65,0,0,1,.19-.41.67.67,0,0,1,.72-.27s.13,0,.06.11a2.52,2.52,0,0,0-.32.84c-.16.53-.31,1.07-.47,1.61l-.42,1.45c-.06.2-.12.39-.18.58s-.05.08-.11.08H2.33Z"/><path class="cls-1" d="M19.93,42.57h-.3c-.11,0-.15,0-.11-.15.19-.56.37-1.12.56-1.67s.45-1.38.68-2.06a2,2,0,0,1,.23-.53.67.67,0,0,1,.69-.27c.07,0,.13,0,.07.13a3.68,3.68,0,0,0-.36,1c-.17.5-.29,1-.47,1.52s-.28,1-.42,1.53c0,.14-.09.28-.12.42s-.06.08-.12.08h-.33Z"/><path class="cls-1" d="M13.14,42q.08-1.76.16-3.53a1.11,1.11,0,0,1,.06-.34.53.53,0,0,1,.7-.24c.06,0,.09.07,0,.13a.39.39,0,0,0-.07.26q-.05,1.87-.11,3.73c0,.13,0,.26,0,.39s0,.13-.12.13h-.57c-.09,0-.1,0-.1-.12s0-.28,0-.42Z"/><path class="cls-1" d="M12.57,39.59c0,.48,0,1,0,1.45a1.49,1.49,0,0,1-.06.4.45.45,0,0,1-.37.34,2.23,2.23,0,0,1-.58,0s-.06,0-.08,0,0,0,0,0a.64.64,0,0,0,.21-.55q0-1.52,0-3c0-.15,0-.22.2-.2a3.64,3.64,0,0,0,.5,0c.11,0,.15,0,.15.15,0,.5,0,1,0,1.51Z"/><path class="cls-1" d="M17.67,41.59c0,.28,0,.55,0,.83,0,.11,0,.16-.13.15H17c-.09,0-.12,0-.12-.11,0-1-.07-2-.12-3a2.64,2.64,0,0,1,.45-1.22.48.48,0,0,1,.13-.11c.05,0,.11,0,.12.06s0,.18.05.28q.07,1.56.14,3.12Z"/><path class="cls-1" d="M15.39,41.94a.55.55,0,0,1-.46-.41s0-.06,0-.07c.27-.07.34-.31.43-.53l1-2.48a1,1,0,0,1,.28-.43.57.57,0,0,1,.66-.09c.06,0,.11.07,0,.12a1,1,0,0,0-.4.54c-.29.8-.57,1.61-.86,2.41-.07.2-.14.4-.22.6A.46.46,0,0,1,15.39,41.94Z"/><path class="cls-1" d="M26.09,38.71a1.11,1.11,0,0,1,1,.65,1,1,0,0,1-.62,1.29,4.07,4.07,0,0,1-1.5.13c-.07,0-.08,0-.08-.1s0-.27,0-.41,0-.17.16-.16a4,4,0,0,0,.77,0,.62.62,0,0,0,.53-.55A.89.89,0,0,0,26.09,38.71Z"/><path class="cls-1" d="M4,40.76h.35a1.25,1.25,0,0,1,1.19.76,5.25,5.25,0,0,1,.34.92c0,.1,0,.13-.09.13H5.18A.15.15,0,0,1,5,42.44a7.53,7.53,0,0,1-.27-1c0-.11-.1-.09-.17-.09H3.34c-.16,0-.17,0-.12-.17a2.41,2.41,0,0,0,.1-.34c0-.11.07-.14.17-.13H4Z"/><path class="cls-1" d="M5.46,41.15c-.12-.08-.2-.2-.33-.27a1,1,0,0,0-.46-.18.23.23,0,0,1-.23-.2c-.15-.53-.32-1-.48-1.57a.62.62,0,0,1,0-.37,1.94,1.94,0,0,1,.18-.45c.06-.1.13-.13.22,0a1.26,1.26,0,0,1,.23.41c.17.52.34,1,.51,1.57l.3.93A.19.19,0,0,1,5.46,41.15Z"/><path class="cls-1" d="M14.1,38.84a3.82,3.82,0,0,1,0-.6c0-.07,0-.14.08-.16s.09.06.12.11a8.09,8.09,0,0,1,.37.89c.2.51.39,1,.59,1.55a.36.36,0,0,1,0,.28,1.47,1.47,0,0,1-.17.33.24.24,0,0,1-.21.11c-.1,0-.08-.09-.1-.15-.21-.51-.37-1-.58-1.55A1.36,1.36,0,0,1,14.1,38.84Z"/><path class="cls-1" d="M26.79,42.57c-.49,0-.49,0-.71-.44s-.39-.76-.59-1.14c-.06-.1,0-.13.06-.13a2.63,2.63,0,0,0,.68-.08c.07,0,.09,0,.11.08l.57,1,.31.54c.05.09.06.16-.09.15Z"/><path class="cls-1" d="M27.15,39.35a1.65,1.65,0,0,0-.38-.49,1.72,1.72,0,0,0-.86-.29,5,5,0,0,0-1,0c-.09,0-.08,0-.08-.08s0-.34,0-.5,0-.11.09-.11a3.4,3.4,0,0,1,1.62.2,1,1,0,0,1,.58.8A1.5,1.5,0,0,1,27.15,39.35Z"/><path class="cls-1" d="M10.26,41.74a1.34,1.34,0,0,0,1,.1.35.35,0,0,1,.17,0,1.2,1.2,0,0,0,.91-.08s.06,0,.08,0,0,.08,0,.12a1.22,1.22,0,0,1-.72.63,1.2,1.2,0,0,1-1.44-.67A.11.11,0,0,1,10.26,41.74Z"/><path class="cls-1" d="M7.24,41.78a1.28,1.28,0,0,0,.63.12H8.8c.11,0,.14,0,.13.13s0,.28,0,.42,0,.11-.09.11a2.66,2.66,0,0,1-1.08-.09A.75.75,0,0,1,7.24,41.78Z"/><path class="cls-3" d="M43.21,8.43c-.07,0-.05.12-.07.18S43.19,8.49,43.21,8.43Z"/><path class="cls-4" d="M44.42,40a12.09,12.09,0,0,1-.86,1.76c-.13.22-.28.43-.4.65a.19.19,0,0,1-.2.1H37.2a.86.86,0,0,1-.94-.45c-.37-.51-.75-1-1.07-1.56a12.52,12.52,0,0,1-.83-1.7c-.15-.38-.28-.77-.41-1.16a12.91,12.91,0,0,1-.35-1.3c-.07-.31-.11-.62-.15-.94a11.88,11.88,0,0,1,0-2.13,8.17,8.17,0,0,1,.16-1.11A11,11,0,0,1,33.84,31c.13-.44.26-.87.42-1.3a11.6,11.6,0,0,1,.59-1.39c.17-.33.33-.67.51-1s.43-.8.67-1.18.58-.89.88-1.32c.51-.74,1.06-1.45,1.61-2.16a5.45,5.45,0,0,1,.47-.57c.07.28.13.54.2.79a8.12,8.12,0,0,0,.31.81,13.36,13.36,0,0,0,1,1.81c.19.3.44.56.63.85s.42.52.61.79c.38.57.83,1.08,1.22,1.64a17.39,17.39,0,0,1,1.34,2.29,9.74,9.74,0,0,1,.47,1.23c.11.34.21.68.29,1s.1.58.15.87a8,8,0,0,1,.08,1.39,9.69,9.69,0,0,1-.06,1.22c0,.33-.09.66-.15,1s-.16.7-.26,1S44.57,39.65,44.42,40ZM53,31.18a10.43,10.43,0,0,1-.22,1.53,14.82,14.82,0,0,1-.59,2.05,10.14,10.14,0,0,1-.44,1,17.15,17.15,0,0,1-1.34,2.27l-.79,1.11c-.23.32-.5.63-.76.93-.42.5-.84,1-1.28,1.5-.29.32-.61.61-.9.92a.18.18,0,0,1-.15.05h-1.6a1.7,1.7,0,0,1-.38,0c-.09,0-.12,0-.07-.12a11.92,11.92,0,0,0,.83-1.6,12.32,12.32,0,0,0,.54-1.42c.13-.42.26-.85.35-1.28s.11-.65.16-1a12.25,12.25,0,0,0,.11-1.92c0-.16,0-.31,0-.47a4.35,4.35,0,0,0-.08-.72,9.12,9.12,0,0,0-.17-.9,12.34,12.34,0,0,0-.46-1.46,11.69,11.69,0,0,0-.51-1.15,21,21,0,0,0-1.12-2L43,27l-1.22-1.89A24,24,0,0,1,40.6,23c-.23-.46-.43-.94-.61-1.42s-.35-1-.51-1.49a5.27,5.27,0,0,0-1,.9c-.63.7-1.21,1.45-1.77,2.21s-1,1.44-1.52,2.19a21.14,21.14,0,0,0-1.09,1.91,18.62,18.62,0,0,0-.77,1.7c-.19.48-.36,1-.51,1.47s-.25,1-.34,1.44a11.74,11.74,0,0,0-.22,2.77,11,11,0,0,0,.17,1.46c.08.42.16.83.27,1.24a10,10,0,0,0,.34,1.07c.15.37.26.75.41,1.12a8.59,8.59,0,0,0,.4.86A14.61,14.61,0,0,0,34.78,42l.43.59c0,.05-.1,0-.15,0H33a.5.5,0,0,1-.35-.14,18.45,18.45,0,0,1-1.74-1.62l-.59-.67a17.82,17.82,0,0,1-1.28-1.71c-.39-.56-.72-1.17-1.05-1.77-.17-.3-.31-.61-.46-.92a19.92,19.92,0,0,1-.85-2.09,16,16,0,0,1-.47-1.56c-.11-.48-.22-1-.32-1.45a18.19,18.19,0,0,1-.3-4.32,10.59,10.59,0,0,1,.17-1.6c.06-.33.09-.67.17-1,.13-.52.26-1,.44-1.54a19.63,19.63,0,0,1,.92-2.15c.27-.55.58-1.09.87-1.63.45-.82,1-1.62,1.44-2.42l0,0h0l0-.06c.13-.23.28-.46.43-.68a.09.09,0,0,0,0-.07c0-.14.14-.21.21-.32l.07-.12a.82.82,0,0,1,.17-.26l.32-.5a2,2,0,0,1,.25-.38h0l1-1.5c.42-.64.83-1.29,1.26-1.93.18-.28.38-.55.55-.83l.73-1.2c.57-.94,1.13-1.89,1.61-2.89A11.78,11.78,0,0,0,37,3.52a9.65,9.65,0,0,0,.31-1.26c.09-.58.12-1.16.2-1.74,0-.33.11-.65.16-1,0,0,0-.09.05-.1s.06,0,.09.08A6.59,6.59,0,0,1,38.74,1c.25.48.42,1,.63,1.48a20.83,20.83,0,0,1,.76,2.09,14,14,0,0,1,.42,1.83,11.19,11.19,0,0,1,.13,2.48,8,8,0,0,1-.43,2.22c-.13.36-.29.7-.41,1.06,0,0,0,.09,0,.13s.08,0,.12,0a4.42,4.42,0,0,0,2-1.55A6.13,6.13,0,0,0,43,9c0-.07,0-.16.11-.21s0-.13.06-.17h0c.13,0,.05-.12.07-.18s.09-.31.13-.46c.14-.56.28-1.11.43-1.67.06-.21.07-.2.24-.07a4.19,4.19,0,0,1,1.06,1.19,7,7,0,0,1,.54,1,1.47,1.47,0,0,1,.18.47,6.37,6.37,0,0,1,.31.88c.14.43.24.86.34,1.3s.24,1.09.36,1.63c.07.33.14.65.2,1s.17.88.24,1.32c0,.25.1.49.15.73a.74.74,0,0,1,0,.22h0a3.35,3.35,0,0,1,.18.71,13.1,13.1,0,0,0,.54,1.69,12.52,12.52,0,0,0,1.2,2.19c.52.8,1,1.6,1.51,2.43.28.51.54,1,.79,1.55s.43,1,.61,1.5a14.75,14.75,0,0,1,.42,1.44A12.45,12.45,0,0,1,53,31.18ZM29.9,15.66h0ZM43.14,8.92Zm0-.08s0,0,0,.06S43.16,8.87,43.15,8.85Zm4,7.13h0Zm.14.48s0,0,0,0h0S47.25,16.45,47.25,16.46Z"/></g></svg>