<?xml version="1.0" encoding="utf-8"?>
<!-- Generator: Adobe Illustrator 21.1.0, SVG Export Plug-In . SVG Version: 6.00 Build 0)  -->
<svg version="1.1" id="Camada_1" xmlns="http://www.w3.org/2000/svg" xmlns:xlink="http://www.w3.org/1999/xlink" x="0px" y="0px"
	 viewBox="0 0 78.6 58.5" style="enable-background:new 0 0 78.6 58.5;" xml:space="preserve">
<style type="text/css">
	.st0{fill:#ED863A;}
	.st1{fill:#F9C32A;}
	.st2{fill:url(#SVGID_1_);}
	.st3{fill:url(#SVGID_2_);}
</style>
<title>logo</title>
<g id="Camada_1_1_">
	<path class="st0" d="M25.6,49c0,0.4,0,0.8,0,1.1c-0.1,1.7-0.1,3.3-0.2,5c0,0.3,0,0.3-0.3,0.3h-1.3c-0.1,0-0.1,0-0.1-0.2
		c0.1-1.6,0.2-3.1,0.2-4.7c0-1,0.1-2,0.1-3c0-0.4,0.1-0.7,0.3-1c0.1-0.2,0.4-0.3,0.6-0.3c0.7-0.1,1.3,0.3,1.5,0.9
		c0.4,0.8,0.7,1.7,1,2.5l0.8,2.2l0,0c0.3-0.8,0.7-1.7,1-2.5s0.6-1.5,0.9-2.3c0.2-0.4,0.5-0.7,0.9-0.8c0.4-0.1,0.8-0.1,1.1,0.2
		c0.2,0.2,0.3,0.4,0.3,0.6c0.1,0.7,0.1,1.3,0.1,2c0,1.1,0.1,2.2,0.1,3.4c0,0.9,0.1,1.8,0.1,2.7c0,0.3,0,0.3-0.3,0.3h-1.3
		c-0.1,0-0.1,0-0.1-0.2c0-0.7,0-1.3-0.1-2c0-1-0.1-2.1-0.1-3.1c0-0.4,0-0.8-0.1-1.2l-0.3,0.9c-0.3,0.9-0.6,1.8-1,2.7
		c-0.1,0.4-0.3,0.8-0.5,1.2c-0.2,0.4-0.7,0.6-1.1,0.5c-0.3-0.1-0.5-0.3-0.6-0.5c-0.4-0.9-0.7-1.8-1.1-2.8
		C26.1,50.3,25.8,49.7,25.6,49L25.6,49z"/>
	<path class="st0" d="M15.1,50.9c0,1.5,0,2.9,0,4.4c0,0.1,0,0.2-0.1,0.2h-1.5c-0.1,0-0.1,0-0.2-0.2c0-1.2,0-2.4,0-3.6
		c0-0.1,0-0.1-0.1-0.1h-3c-0.1,0-0.2,0-0.2,0.2c0,1.2,0,2.3,0,3.5c0,0.2,0,0.2-0.2,0.2H8.4c-0.1,0-0.2,0-0.2-0.2c0-2.5,0-5,0-7.5
		c0-0.4,0-0.8,0-1.3c0-0.1,0-0.2,0.1-0.2h1.6c0.1,0,0.1,0,0.1,0.2c0,1.1,0,2.2,0,3.4c0,0.1,0,0.2,0.2,0.2c1,0,2,0,3,0
		c0.1,0,0.1,0,0.1-0.1c0-1.1,0-2.2,0-3.3c0-0.3,0-0.3,0.3-0.3H15c0.1,0,0.2,0,0.2,0.2C15.2,48,15.2,49.5,15.1,50.9L15.1,50.9z"/>
	<path class="st0" d="M41.3,55.4c-0.1,0-0.2,0-0.3,0h-1.5c-0.1,0-0.2,0-0.2-0.1c0,0,0,0,0,0c-0.1-0.4-0.3-0.9-0.4-1.3
		c-0.1-0.2-0.1-0.5-0.2-0.7c0-0.1-0.1-0.1-0.2-0.1h-2.8c-0.1,0-0.1,0-0.2,0.1c-0.1,0.4-0.2,0.7-0.3,1.1S35,55,34.9,55.3
		c0,0.1-0.1,0.2-0.2,0.2c0,0,0,0,0,0h-1.6c-0.1,0-0.1,0-0.1-0.2l0.4-1.3c0.2-0.5,0.3-1,0.5-1.4s0.3-0.9,0.5-1.4l0.5-1.3
		c0.3-0.8,0.5-1.6,0.8-2.4c0.1-0.4,0.4-0.8,0.7-1c0.4-0.3,1-0.3,1.4,0c0.4,0.2,0.7,0.6,0.8,1.1c0.2,0.5,0.3,1,0.5,1.4
		s0.4,1.2,0.6,1.8c0.1,0.3,0.2,0.5,0.3,0.8s0.3,0.8,0.4,1.2l0.7,2.2c0,0.1,0,0.2,0.1,0.3L41.3,55.4z M37.1,48.2
		c-0.1,0.1-0.1,0.2-0.1,0.4c-0.2,0.6-0.4,1.2-0.6,1.9c-0.1,0.4-0.2,0.7-0.3,1.1c0,0.1-0.1,0.2-0.1,0.3s0.2,0,0.3,0h1.8
		c0.1,0,0.2,0,0.1-0.1l-0.3-0.9l-0.5-1.7L37.1,48.2z"/>
	<path class="st0" d="M19.4,53.2H18c-0.1,0-0.2,0-0.2,0.1c0,0,0,0,0,0c-0.2,0.7-0.4,1.3-0.6,2c0,0.1-0.1,0.1-0.2,0.1h-1.6
		c-0.1,0-0.1,0-0.1-0.1c0.3-0.9,0.6-1.8,0.9-2.7l0.9-2.5c0.3-0.8,0.5-1.5,0.8-2.3c0.1-0.4,0.3-0.7,0.5-1c0.5-0.6,1.4-0.7,2-0.3
		c0.1,0.1,0.2,0.2,0.3,0.3c0.2,0.3,0.3,0.7,0.4,1.1c0.4,1.1,0.7,2.2,1.1,3.3l0.6,1.9l0.7,2.1c0,0.1,0,0.1-0.1,0.1h-1.7
		c-0.1,0-0.2,0-0.2-0.1c0,0,0,0,0,0c-0.2-0.6-0.4-1.3-0.6-1.9c0-0.1-0.1-0.2-0.2-0.2c0,0,0,0,0,0C20.3,53.2,19.8,53.2,19.4,53.2z
		 M19.4,48.2L19.4,48.2c-0.1,0.5-0.3,0.9-0.4,1.4l-0.6,2.1c0,0.2,0,0.2,0.1,0.2h1.9c0.2,0,0.2,0,0.1-0.2l-0.7-2.4L19.4,48.2z"/>
	<path class="st1" d="M41.3,55.4v-0.2c0-0.2,0.1-0.3,0.1-0.5c0-0.6,0.1-1.2,0.1-1.8c0-0.3,0-0.7,0-1s0-0.5,0-0.8
		c0.1-0.9,0.1-1.7,0.2-2.6c0-0.5,0.1-1,0.1-1.5c0-0.2,0-0.3,0.1-0.5c0.2-0.3,0.6-0.4,0.9-0.2c0,0,0,0,0,0c0.2,0.2,0.4,0.4,0.5,0.7
		c0.2,0.5,0.4,1,0.7,1.5l0.3,0.7l1,2.3l0.5,1.2c0,0,0,0.1,0.1,0.1s0,0,0.1-0.1c0.2-0.5,0.5-1,0.7-1.6c0.3-0.7,0.6-1.4,0.9-2.1
		s0.5-1.1,0.8-1.7c0.1-0.3,0.3-0.6,0.4-0.8c0.2-0.3,0.6-0.4,1-0.2c0,0,0.1,0.1,0.1,0.1c0.1,0.1,0.1,0.2,0.1,0.3
		c0,0.2,0.1,0.4,0.1,0.5c0,0.5,0.1,1,0.1,1.6c0,0.9,0.1,1.8,0.2,2.7c0,0.5,0.1,1,0.1,1.5c0,0.7,0.1,1.5,0.1,2.2c0,0.1,0,0.2-0.2,0.2
		s-0.4,0-0.6,0s-0.2,0-0.2-0.2c0-0.7-0.1-1.4-0.1-2.1s-0.1-1.4-0.1-2.1c0-0.5,0-1-0.1-1.4S49,48.6,49,48c0,0,0-0.1,0-0.2l-0.4,1
		L48,50.2l-0.5,1.2l-0.8,1.8c-0.1,0.2-0.2,0.5-0.3,0.7c-0.1,0.2-0.5,0.3-0.7,0.2c-0.1,0-0.1-0.1-0.2-0.2c-0.1-0.1-0.2-0.3-0.2-0.4
		c-0.2-0.4-0.3-0.8-0.5-1.2s-0.4-1-0.7-1.5c-0.3-0.7-0.6-1.4-0.9-2.1c-0.1-0.3-0.3-0.6-0.4-0.9v0.7c-0.1,1-0.1,2-0.2,2.9
		c0,0.5,0,0.9-0.1,1.4c0,0.7-0.1,1.4-0.1,2.1c0,0.1,0,0.2,0,0.4c0,0.1,0,0.1-0.1,0.1C41.9,55.5,41.6,55.5,41.3,55.4z"/>
	<path class="st0" d="M1.8,50.9c0-0.7,0-1.3,0.1-2c0.1-0.7,0.4-1.3,0.8-1.8c0.3-0.3,0.7-0.6,1.2-0.7c1-0.2,1.9-0.3,2.9-0.1
		c0.3,0,0.7,0.1,1,0.2c0.1,0,0.1,0.1,0.1,0.2c0,0.4-0.1,0.8-0.1,1.2c0,0.1,0,0.1-0.1,0.1l-1.2-0.1c-0.5-0.1-0.9,0-1.4,0
		c-0.7,0.2-1.1,0.7-1.2,1.4c-0.1,0.9-0.1,1.9,0,2.8c0,0.5,0.2,0.9,0.5,1.3c0.2,0.2,0.5,0.4,0.8,0.4C5.4,54,5.9,54,6.3,54
		c0.4,0,0.9,0,1.3-0.1c0.1,0,0.1,0,0.1,0.1c0,0.4,0.1,0.8,0.1,1.2c0,0.1,0,0.1-0.1,0.1c-0.4,0.1-0.8,0.2-1.2,0.2
		c-0.7,0.1-1.3,0.1-2,0c-0.6-0.1-1.2-0.3-1.7-0.7c-0.4-0.4-0.7-0.9-0.8-1.4C1.9,52.6,1.8,51.8,1.8,50.9z"/>
	<path class="st1" d="M57.8,47.7c0,0.4,0,0.7,0,1c0,2.1,0,4.2,0,6.3c0,0.1,0,0.2,0,0.3c0,0.2-0.1,0.2-0.2,0.2H57
		c-0.1,0-0.1,0-0.1-0.1c0-2.8,0-5.6,0-8.4c0-0.2,0.1-0.4,0.2-0.5c0.3-0.2,0.6-0.2,0.8,0c0.2,0.2,0.4,0.4,0.5,0.6
		c0.3,0.4,0.5,0.8,0.8,1.3c0.4,0.7,0.8,1.3,1.2,1.9s0.9,1.5,1.4,2.2l1,1.6l0.1,0.1c0-0.2,0-0.3,0-0.5c0-2.4,0-4.7,0-7.1
		c0-0.2,0-0.2,0.2-0.2h0.6c0.1,0,0.2,0,0.2,0.1c0,0.4,0,0.7,0,1.1c0,2.3,0,4.6,0,6.9c0,0.2,0,0.3,0,0.5c0,0.3-0.3,0.6-0.6,0.6
		c-0.1,0-0.3,0-0.4-0.1c-0.3-0.2-0.5-0.4-0.6-0.7l-1.4-2.3l-1.4-2.2l-1-1.6c-0.2-0.3-0.3-0.5-0.5-0.8L57.8,47.7z"/>
	<path class="st1" d="M69.8,51c0-0.5,0-1,0.1-1.6c0-0.6,0.2-1.3,0.5-1.8c0.3-0.5,0.8-0.9,1.4-1.1c0.8-0.2,1.6-0.3,2.4-0.1
		c0.5,0,0.9,0.2,1.3,0.4c0.4,0.2,0.7,0.6,0.9,1c0.2,0.4,0.3,0.8,0.3,1.2c0.1,0.9,0.2,1.8,0.1,2.6c0,0.5-0.1,1-0.2,1.5
		c-0.1,0.6-0.3,1.1-0.6,1.5c-0.3,0.3-0.6,0.6-1,0.7c-0.8,0.3-1.6,0.3-2.5,0.2c-0.4,0-0.8-0.2-1.2-0.3c-0.4-0.2-0.8-0.5-1-1
		c-0.2-0.5-0.4-1-0.5-1.5C69.8,52.2,69.8,51.6,69.8,51z M75.8,51c0-0.7,0-1.4-0.1-2.2c-0.1-0.4-0.2-0.7-0.5-1
		c-0.4-0.4-1-0.6-1.5-0.6c-0.3,0-0.7,0-1,0c-0.4,0.1-0.8,0.3-1.2,0.6c-0.4,0.4-0.5,1-0.6,1.6c-0.1,0.7-0.1,1.4-0.1,2.2
		c0,0.6,0,1.3,0.2,1.9c0.1,0.3,0.3,0.6,0.5,0.8c0.3,0.2,0.6,0.4,1,0.5c0.6,0.1,1.2,0.1,1.8-0.1c0.5-0.2,0.9-0.5,1.1-1
		c0.2-0.5,0.3-1,0.3-1.5C75.8,51.7,75.7,51.3,75.8,51L75.8,51z"/>
	<path class="st1" d="M51.1,50.9c0-0.9,0-1.9,0-2.8c0-0.7,0.4-1.3,1-1.5c0.3-0.1,0.7-0.2,1-0.2c1,0,2,0,3,0c0.1,0,0.2,0,0.2,0.2
		c0,0.1,0,0.3,0,0.4c0,0.1,0,0.2-0.2,0.2h-2.5c-0.3,0-0.6,0.1-0.9,0.2c-0.3,0.1-0.5,0.4-0.5,0.7c-0.1,0.8-0.1,1.5-0.1,2.3
		c0,0.1,0,0.1,0.1,0.1H56c0.1,0,0.2,0,0.2,0.2c0,0.2,0,0.3,0,0.5c0,0.1,0,0.1-0.1,0.1h-3.7c-0.1,0-0.2,0-0.2,0.2c0,0.6,0,1.2,0,1.8
		c0,0.3,0,0.6,0.1,0.8c0.1,0.2,0.2,0.3,0.4,0.4c0.3,0.1,0.5,0.2,0.8,0.2c0.9,0,1.8,0,2.6,0c0.2,0,0.2,0,0.2,0.3c0,0.1,0,0.2,0,0.4
		c0,0.1,0,0.1-0.1,0.2c-0.6,0-1.1,0-1.7,0c-0.4,0-0.8,0-1.3,0c-0.5,0-0.9-0.1-1.3-0.3c-0.4-0.2-0.6-0.6-0.7-1
		c-0.1-0.3-0.1-0.5-0.1-0.8C51.1,52.4,51.1,51.6,51.1,50.9L51.1,50.9z"/>
	<path class="st1" d="M67.5,51.3c0,1.3,0,2.6,0,4c0,0.1,0,0.2-0.2,0.2h-0.7c-0.1,0-0.2,0-0.2-0.2c0-1.8,0-3.5,0-5.2
		c0-0.9,0-1.8,0-2.7c0-0.2-0.1-0.2-0.2-0.2h-2.1c-0.1,0-0.2,0-0.2-0.2c0-0.2,0-0.3,0-0.5c0-0.1,0-0.2,0.2-0.2h5.7
		c0.1,0,0.2,0,0.2,0.2s0,0.3,0,0.5s0,0.2-0.2,0.2h-2c-0.4,0-0.3,0-0.3,0.3C67.5,48.8,67.5,50.1,67.5,51.3z"/>
	<path class="st0" d="M23.1,43c-0.1-0.1-0.2-0.1-0.3-0.2c0,0-0.1,0-0.1,0s0,0.1,0,0.1c0.4,0.4,0.7,0.9,0.8,1.5c0,0.1,0,0.1-0.1,0.1
		h-0.7c-0.1,0-0.1,0-0.1-0.1c-0.1-0.3-0.2-0.5-0.3-0.8s0-0.2-0.3-0.2h-1.2c-0.1,0-0.1,0-0.1-0.1s0.1-0.3,0.1-0.5s0.1-0.1,0.1-0.1
		h1.2c0.1,0,0.2,0,0.3,0.1c0,0,0.1,0,0.1,0s0,0-0.1-0.1c-0.1-0.1-0.2-0.1-0.4-0.1c-0.1,0-0.1,0-0.1-0.1c-0.2-0.5-0.3-1.1-0.5-1.6
		c0-0.1,0-0.2,0-0.3c0-0.2,0.1-0.3,0.2-0.5s0.2-0.2,0.3,0c0.1,0.2,0.2,0.4,0.3,0.6c0.2,0.5,0.4,1.1,0.5,1.6
		C22.9,42.5,23,42.8,23.1,43z"/>
	<path class="st0" d="M18.3,42.1c0-0.7,0-1.4,0-2.1c0-0.1,0-0.2,0.2-0.2c0.2,0,0.3,0,0.5,0c0.1,0,0.2,0,0.2,0.2c0,0.7,0,1.4,0,2
		s0,1.5,0,2.3c0,0.1,0,0.2-0.2,0.2h-0.6c-0.1,0-0.1-0.1-0.1-0.2c0-0.4,0-0.8,0-1.2S18.3,42.4,18.3,42.1L18.3,42.1z"/>
	<path class="st0" d="M24.8,42.1c0,0.7,0,1.4,0,2.2c0,0.1,0,0.2-0.2,0.2H24c-0.1,0-0.1,0-0.1-0.1s0-0.2,0-0.3c0-1.3,0-2.7,0-4
		c0-0.1,0-0.2,0.2-0.2l0.6-0.1c0.1,0,0.1,0,0.1,0.1C24.8,40.7,24.8,41.4,24.8,42.1L24.8,42.1z"/>
	<path class="st0" d="M7.7,44.5c-0.3,0-0.7,0-1-0.1c-0.3-0.2-0.5-0.5-0.5-0.9c0-1.1,0-2.3,0-3.4c0-0.2,0-0.2,0.2-0.2
		c0.2,0,0.3,0,0.5,0c0.1,0,0.2,0,0.2,0.2c0,0.5,0,0.9,0,1.4c0,0.6,0,1.2,0,1.8C7,43.7,7.2,44.2,7.7,44.5z"/>
	<path class="st0" d="M10.9,44.5c-0.5,0.1-1,0-1.4-0.4c-0.2-0.3-0.3-0.7-0.3-1.1c0-1,0-2,0-3c0-0.1,0-0.2,0.1-0.2H10
		c0.1,0,0.2,0,0.1,0.2c0,0,0,0.1,0,0.1c0,1,0,1.9,0,2.9c0,0.3,0.1,0.7,0.2,1C10.4,44.2,10.6,44.4,10.9,44.5L10.9,44.5z"/>
	<path class="st0" d="M2.3,44.5H2c-0.1,0-0.1,0-0.1-0.1c0.2-0.6,0.4-1.1,0.6-1.7l0.7-2.2c0-0.1,0.1-0.3,0.2-0.4
		c0.2-0.2,0.4-0.3,0.7-0.3c0,0,0.1,0,0.1,0.1c-0.2,0.3-0.3,0.5-0.3,0.8c-0.2,0.5-0.3,1.1-0.5,1.6L3,43.8c-0.1,0.2-0.1,0.4-0.2,0.6
		s0,0.1-0.1,0.1C2.7,44.5,2.3,44.5,2.3,44.5z"/>
	<path class="st0" d="M19.9,44.5h-0.3c-0.1,0-0.1,0-0.1-0.2c0.2-0.6,0.4-1.1,0.6-1.7s0.5-1.4,0.7-2.1c0.1-0.2,0.1-0.4,0.2-0.5
		c0.2-0.2,0.4-0.3,0.7-0.3c0.1,0,0.1,0,0.1,0.1c-0.2,0.3-0.3,0.7-0.4,1c-0.2,0.5-0.3,1-0.5,1.5s-0.3,1-0.4,1.5
		c0,0.1-0.1,0.3-0.1,0.4s-0.1,0.1-0.1,0.1C20.3,44.5,19.9,44.5,19.9,44.5z"/>
	<path class="st0" d="M13.1,43.9c0.1-1.2,0.1-2.3,0.2-3.5c0-0.1,0-0.2,0.1-0.3c0.1-0.3,0.4-0.4,0.7-0.2c0.1,0,0.1,0.1,0,0.1
		C14,40,14,40.1,14,40.2c0,1.2-0.1,2.5-0.1,3.7c0,0.1,0,0.3,0,0.4s0,0.1-0.1,0.1h-0.6c-0.1,0-0.1,0-0.1-0.1S13.1,44,13.1,43.9
		L13.1,43.9z"/>
	<path class="st0" d="M12.6,41.5c0,0.5,0,1,0,1.5c0,0.1,0,0.3-0.1,0.4c0,0.2-0.2,0.3-0.4,0.3c-0.2,0-0.4,0-0.6,0c0,0-0.1,0-0.1,0
		s0,0,0,0c0.2-0.1,0.2-0.3,0.2-0.5c0-1,0-2,0-3c0-0.2,0-0.2,0.2-0.2c0.2,0,0.3,0,0.5,0c0.1,0,0.1,0,0.1,0.2c0,0.5,0,1,0,1.5
		L12.6,41.5z"/>
	<path class="st0" d="M17.7,43.5c0,0.3,0,0.5,0,0.8c0,0.1,0,0.2-0.1,0.2H17c-0.1,0-0.1,0-0.1-0.1c0-1-0.1-2-0.1-3
		c0-0.4,0.2-0.9,0.5-1.2c0,0,0.1-0.1,0.1-0.1c0,0,0.1,0,0.1,0.1s0,0.2,0,0.3C17.6,41.4,17.6,42.4,17.7,43.5L17.7,43.5z"/>
	<path class="st0" d="M15.4,43.8c-0.2,0-0.4-0.2-0.5-0.4c0,0,0-0.1,0-0.1c0.3-0.1,0.3-0.3,0.4-0.5l1-2.5c0.1-0.2,0.2-0.3,0.3-0.4
		c0.2-0.2,0.4-0.2,0.7-0.1c0.1,0,0.1,0.1,0,0.1c-0.2,0.1-0.3,0.3-0.4,0.5c-0.3,0.8-0.6,1.6-0.9,2.4c-0.1,0.2-0.1,0.4-0.2,0.6
		C15.8,43.7,15.6,43.8,15.4,43.8z"/>
	<path class="st0" d="M26.1,40.6c0.4,0,0.8,0.3,1,0.7c0.2,0.5-0.1,1.1-0.6,1.3c0,0,0,0,0,0c-0.5,0.1-1,0.2-1.5,0.1
		c-0.1,0-0.1,0-0.1-0.1s0-0.3,0-0.4s0-0.2,0.2-0.2c0.3,0,0.5,0,0.8,0c0.3,0,0.5-0.3,0.5-0.5C26.4,41.1,26.3,40.8,26.1,40.6z"/>
	<path class="st0" d="M4,42.7h0.3c0.5,0,1,0.3,1.2,0.8c0.1,0.3,0.3,0.6,0.3,0.9c0,0.1,0,0.1-0.1,0.1H5.2c-0.1,0-0.2,0-0.2-0.1
		c0,0,0,0,0,0c-0.1-0.3-0.2-0.7-0.3-1c0-0.1-0.1-0.1-0.2-0.1H3.3c-0.2,0-0.2,0-0.1-0.2c0-0.1,0.1-0.2,0.1-0.3c0-0.1,0.1-0.1,0.2-0.1
		L4,42.7L4,42.7z"/>
	<path class="st0" d="M5.5,43c-0.1-0.1-0.2-0.2-0.3-0.3c-0.1-0.1-0.3-0.2-0.5-0.2c-0.1,0-0.2-0.1-0.2-0.2c-0.2-0.5-0.3-1-0.5-1.6
		c0-0.1,0-0.2,0-0.4c0-0.2,0.1-0.3,0.2-0.5c0.1-0.1,0.1-0.1,0.2,0c0.1,0.1,0.2,0.3,0.2,0.4c0.2,0.5,0.3,1,0.5,1.6l0.3,0.9
		C5.4,42.9,5.5,43,5.5,43z"/>
	<path class="st0" d="M14.1,40.7c0-0.2,0-0.4,0-0.6c0-0.1,0-0.1,0.1-0.2s0.1,0.1,0.1,0.1c0.1,0.3,0.3,0.6,0.4,0.9
		c0.2,0.5,0.4,1,0.6,1.5c0,0.1,0,0.2,0,0.3c0,0.1-0.1,0.2-0.2,0.3c0,0.1-0.1,0.1-0.2,0.1c-0.1,0-0.1-0.1-0.1-0.2
		c-0.2-0.5-0.4-1-0.6-1.5C14.1,41.3,14,41,14.1,40.7z"/>
	<path class="st0" d="M26.8,44.5c-0.5,0-0.5,0-0.7-0.4s-0.4-0.8-0.6-1.1c-0.1-0.1,0-0.1,0.1-0.1c0.2,0,0.5,0,0.7-0.1
		c0.1,0,0.1,0,0.1,0.1l0.6,1l0.3,0.5c0,0.1,0.1,0.2-0.1,0.2L26.8,44.5z"/>
	<path class="st0" d="M27.1,41.2c-0.1-0.2-0.2-0.4-0.4-0.5c-0.3-0.2-0.6-0.3-0.9-0.3c-0.3,0-0.7,0-1,0c-0.1,0-0.1,0-0.1-0.1
		s0-0.3,0-0.5s0-0.1,0.1-0.1c0.5-0.1,1.1,0,1.6,0.2c0.3,0.1,0.5,0.4,0.6,0.8C27.2,40.9,27.2,41.1,27.1,41.2z"/>
	<path class="st0" d="M10.3,43.6c0.3,0.2,0.7,0.2,1,0.1c0.1,0,0.1,0,0.2,0c0.3,0.1,0.6,0.1,0.9-0.1c0,0,0.1,0,0.1,0s0,0.1,0,0.1
		c-0.1,0.3-0.4,0.5-0.7,0.6C11.1,44.6,10.5,44.3,10.3,43.6C10.2,43.7,10.2,43.7,10.3,43.6z"/>
	<path class="st0" d="M7.2,43.7c0.2,0.1,0.4,0.1,0.6,0.1h0.9c0.1,0,0.1,0,0.1,0.1s0,0.3,0,0.4s0,0.1-0.1,0.1c-0.4,0-0.7,0-1.1-0.1
		C7.5,44.3,7.3,44,7.2,43.7z"/>
	
		<linearGradient id="SVGID_1_" gradientUnits="userSpaceOnUse" x1="43.14" y1="51.37" x2="43.22" y2="51.37" gradientTransform="matrix(1 0 0 -1 0 61.7921)">
		<stop  offset="0" style="stop-color:#FFFFFF"/>
		<stop  offset="1" style="stop-color:#000000"/>
	</linearGradient>
	<path class="st2" d="M43.2,10.3c-0.1,0,0,0.1-0.1,0.2S43.2,10.4,43.2,10.3z"/>
	
		<linearGradient id="SVGID_2_" gradientUnits="userSpaceOnUse" x1="39.3193" y1="22.286" x2="39.3193" y2="48.526" gradientTransform="matrix(1 0 0 -1 0 61.7921)">
		<stop  offset="0" style="stop-color:#F0C61F"/>
		<stop  offset="1" style="stop-color:#ED8538"/>
	</linearGradient>
	<path class="st3" d="M44.4,41.9c-0.2,0.6-0.5,1.2-0.9,1.8c-0.1,0.2-0.3,0.4-0.4,0.7c0,0.1-0.1,0.1-0.2,0.1h-5.8
		c-0.4,0.1-0.8-0.1-0.9-0.5c-0.4-0.5-0.8-1-1.1-1.6c-0.3-0.5-0.6-1.1-0.8-1.7c-0.2-0.4-0.3-0.8-0.4-1.2c-0.1-0.4-0.3-0.9-0.3-1.3
		c-0.1-0.3-0.1-0.6-0.2-0.9c-0.1-0.7-0.1-1.4,0-2.1c0-0.4,0.1-0.7,0.2-1.1c0.1-0.4,0.1-0.8,0.2-1.2c0.1-0.4,0.3-0.9,0.4-1.3
		c0.2-0.5,0.4-0.9,0.6-1.4c0.2-0.3,0.3-0.7,0.5-1s0.4-0.8,0.7-1.2s0.6-0.9,0.9-1.3c0.5-0.7,1.1-1.5,1.6-2.2c0.1-0.2,0.3-0.4,0.5-0.6
		c0.1,0.3,0.1,0.5,0.2,0.8c0.1,0.3,0.2,0.5,0.3,0.8c0.3,0.6,0.6,1.2,1,1.8c0.2,0.3,0.4,0.6,0.6,0.9s0.4,0.5,0.6,0.8
		c0.4,0.6,0.8,1.1,1.2,1.6c0.5,0.7,1,1.5,1.3,2.3c0.2,0.4,0.3,0.8,0.5,1.2c0.1,0.3,0.2,0.7,0.3,1s0.1,0.6,0.2,0.9
		c0.1,0.5,0.1,0.9,0.1,1.4c0,0.4,0,0.8-0.1,1.2c0,0.3-0.1,0.7-0.2,1s-0.2,0.7-0.3,1S44.6,41.5,44.4,41.9z M53,33.1
		c0,0.5-0.1,1-0.2,1.5c-0.1,0.7-0.3,1.4-0.6,2c-0.1,0.3-1.3,2.5-1.8,3.3c0,0-1.9,2.8-2.8,3.5c-0.3,0.3-0.6,0.6-0.9,0.9
		c0,0-0.1,0.1-0.2,0h-1.6c-0.1,0-0.3,0-0.4,0c-0.1,0-0.1,0-0.1-0.1c0.3-0.5,0.6-1,0.8-1.6c0.2-0.5,0.4-0.9,0.5-1.4
		c0.1-0.4,0.3-0.8,0.3-1.3s0.1-0.7,0.2-1c0.1-0.6,0.1-1.3,0.1-1.9c0-0.2,0-0.3,0-0.5c0-0.2,0-0.5-0.1-0.7c0-0.3-0.1-0.6-0.2-0.9
		c-0.1-0.5-0.3-1-0.5-1.5c-0.1-0.4-0.3-0.8-0.5-1.2c-0.3-0.7-0.7-1.4-1.1-2L43,28.9L41.8,27c-0.4-0.7-0.8-1.4-1.2-2.1
		c-0.2-0.5-0.4-0.9-0.6-1.4s-0.3-1-0.5-1.5c-0.4,0.3-0.7,0.6-1,0.9c-0.6,0.7-1.2,1.5-1.8,2.2s-1,1.4-1.5,2.2
		c-0.4,0.6-0.8,1.3-1.1,1.9c-0.3,0.6-0.5,1.1-0.8,1.7c-0.2,0.5-0.4,1-0.5,1.5c-0.1,0.5-0.3,1-0.3,1.4c-0.2,0.9-0.3,1.8-0.2,2.8
		c0,0.5,0.1,1,0.2,1.5c0.1,0.4,0.2,0.8,0.3,1.2c0.1,0.4,0.2,0.7,0.3,1.1c0.2,0.4,0.3,0.8,0.4,1.1c0.1,0.3,0.3,0.6,0.4,0.9
		c0.3,0.5,0.6,1.1,0.9,1.6l0.4,0.6c0,0-0.1,0-0.2,0H33c-0.1,0-0.3,0-0.3-0.1c-0.6-0.5-1.2-1-1.7-1.6l-0.6-0.7
		c-0.5-0.5-0.9-1.1-1.3-1.7c-0.4-0.6-0.7-1.2-1-1.8c-0.2-0.3-0.3-0.6-0.5-0.9c-0.3-0.7-0.6-1.4-0.9-2.1c-0.2-0.5-0.3-1-0.5-1.6
		c-0.1-0.5-0.2-1-0.3-1.5c-0.3-1.4-0.4-2.9-0.3-4.3c0-0.5,0.3-2.3,0.3-2.6c0.1-0.5,0.3-1,0.4-1.5c0.3-0.7,0.6-1.5,0.9-2.1
		c0.3-0.5,0.6-1.1,0.9-1.6c0.5-0.8,1-1.6,1.4-2.4l0,0l0,0v-0.1c0.1-0.2,0.3-0.5,0.4-0.7c0,0,0,0,0-0.1c0-0.1,0.1-0.2,0.2-0.3
		l0.1-0.1c0-0.1,0.1-0.2,0.2-0.3l0.3-0.5c0.1-0.1,0.2-0.3,0.3-0.4l0,0l1-1.5c0.4-0.6,0.8-1.3,1.3-1.9c0.2-0.3,0.4-0.6,0.5-0.8
		l0.7-1.2c0.6-0.9,1.1-1.9,1.6-2.9C36.5,6.6,36.8,6,37,5.4c0.1-0.4,0.2-0.8,0.3-1.3c0.1-0.6,0.1-1.2,0.2-1.7c0-0.3,0.1-0.6,0.2-1
		c0,0,0-0.1,0-0.1s0.1,0,0.1,0.1c0.4,0.5,0.7,1,0.9,1.5c0.3,0.5,0.4,1,0.6,1.5c0.3,0.7,0.5,1.4,0.8,2.1c0.2,0.6,0.3,1.2,0.4,1.8
		c0.1,0.8,0.2,1.7,0.1,2.5c0,0.8-0.2,1.5-0.4,2.2c-0.1,0.4-0.3,0.7-0.4,1.1c0,0,0,0.1,0,0.1s0.1,0,0.1,0c0.8-0.3,1.5-0.8,2-1.6
		c0.4-0.5,0.8-1.1,1-1.7c0-0.1,0-0.2,0.1-0.2s0-0.1,0.1-0.2l0,0c0.1,0,0-0.1,0.1-0.2s0.1-0.3,0.1-0.5c0.1-0.6,0.3-1.1,0.4-1.7
		C43.9,8,43.9,8,44,8.1c0.4,0.3,0.8,0.7,1.1,1.2c0.2,0.3,0.4,0.7,0.5,1c0.1,0.1,0.1,0.3,0.2,0.5c0.1,0.3,0.2,0.6,0.3,0.9
		c0.1,0.4,0.2,0.9,0.3,1.3s0.2,1.1,0.4,1.6c0.1,0.3,0.1,0.6,0.2,1s0.2,0.9,0.2,1.3c0,0.3,0.1,0.5,0.2,0.7c0,0.1,0,0.1,0,0.2l0,0
		c0.1,0.2,0.1,0.5,0.2,0.7c0.1,0.6,0.3,1.1,0.5,1.7c0.3,0.8,0.7,1.5,1.2,2.2c0.5,0.8,1,1.6,1.5,2.4c0.3,0.5,0.5,1,0.8,1.5
		s0.4,1,0.6,1.5C52.4,28.4,53.3,30.7,53,33.1z M29.9,17.6L29.9,17.6z M43.1,10.7C43.1,10.7,43.1,10.7,43.1,10.7
		C43.1,10.9,43.2,10.8,43.1,10.7L43.1,10.7z M47.1,17.9L47.1,17.9z M47.3,18.3L47.3,18.3L47.3,18.3C47.3,18.3,47.3,18.3,47.3,18.3
		L47.3,18.3z"/>
</g>
</svg>
