<?xml version="1.0" encoding="utf-8"?>
<!-- Generator: Adobe Illustrator 21.1.0, SVG Export Plug-In . SVG Version: 6.00 Build 0)  -->
<svg version="1.1" id="Camada_1" xmlns="http://www.w3.org/2000/svg" xmlns:xlink="http://www.w3.org/1999/xlink" x="0px" y="0px"
	 viewBox="0 0 200 64.4" style="enable-background:new 0 0 200 64.4;" xml:space="preserve">
<style type="text/css">
	.st0{fill:#099742;}
</style>
<title>metanoia</title>
<path class="st0" d="M50.8,54c-2.2,0.1-4.3-1.2-5.1-3.3c-1,0.7-1.2,2-0.5,3c0.3,0.4,0.6,0.6,1,0.8c1,0.4,2.1,0.6,3.3,0.4
	c1.7-0.1,3.3-0.8,4.6-1.9C53,53.6,51.9,53.9,50.8,54z"/>
<path class="st0" d="M36,19.6c-0.9,3.8-4.1,6.4-8,4.9c1.3,4.9,5.7,5,7.4,3c3.1-3.7,2.2-10.3,1.3-12.8C36.7,16.3,36.5,18,36,19.6z"/>
<path class="st0" d="M56.1,36.9c-3.7,2.9-8.5,4.4-12.4,0.4c-0.8,3.6,2.6,5.9,5.5,5.7c2.2-0.3,4.2-1.2,5.8-2.6
	c2.7-2.3,4.6-5.4,5.2-8.9C59.2,33.6,57.8,35.4,56.1,36.9z"/>
<path class="st0" d="M42.8,12.8c0.6,2.3-0.8,4.5-2.9,5.7c1.2,0.9,3,0.7,3.9-0.6c0.2-0.2,0.3-0.5,0.4-0.8c0.3-1.1,0.3-2.2,0-3.3
	c-0.5-1.7-1.5-3.1-3-4C41.9,10.7,42.5,11.7,42.8,12.8z"/>
<path class="st0" d="M26.8,61c-3-1.7-4.6-4-4.8-5.8c-2.8-0.3-2.4,1.3-1.2,2.6c1.1,1.1,2.4,2,3.8,2.7c2,1.2,4.2,2,6.5,2.3
	C29.6,62.4,28.1,61.7,26.8,61z"/>
<path class="st0" d="M17.4,12.5c2.3,0.4,3.8,2.4,3.5,5.2c2.5-1.3,2.2-3.6,1.2-4.6c-0.8-0.7-1.9-1.2-3-1.4c-1.7-0.3-3.5,0.1-5,1
	C15.1,12.4,16.3,12.3,17.4,12.5z"/>
<path class="st0" d="M6.3,44.4c0.6-2,2.5-3.2,5-2.6c-0.9-2.4-3-2.4-4-1.5c-0.8,0.7-1.3,1.6-1.5,2.5c-0.4,1.5-0.3,3.2,0.4,4.6
	C6,46.5,6,45.4,6.3,44.4z"/>
<path class="st0" d="M33.8,37c1.6,1.3,1.7,3.5,0.1,5.7c1.6,0.1,3-1.1,3.1-2.6c0-0.2,0-0.5,0-0.7c-0.3-0.9-0.8-1.7-1.6-2.3
	c-1.2-0.9-2.7-1.4-4.2-1.2C32.2,35.9,33.1,36.3,33.8,37z"/>
<path class="st0" d="M13.7,31.9c-2.5,1.4-3.5,4.3-1.9,7.4c-3.4-0.5-4-3.2-3.2-4.9c0.7-1.2,1.7-2.2,2.9-2.8c1.9-1,4.1-1.4,6.2-0.9
	C16.3,30.8,14.9,31.2,13.7,31.9z"/>
<path class="st0" d="M50.8,33.4L46,32.8l0,0c-2.8-0.5-5-2.6-5.5-5.4l-0.7-4.8l-0.6,4.8c-0.5,2.8-2.6,5-5.4,5.5l0,0L29,33.6l4.8,0.6
	l0,0c2.8,0.5,5,2.6,5.5,5.4l0.7,4.8l0.6-4.8c0.5-2.8,2.6-5,5.4-5.5l0,0L50.8,33.4z"/>
<polygon class="st0" points="9.4,29.3 18.1,16.1 26.9,29.3 "/>
<path class="st0" d="M31.8,44.3l-3.5-7.8c-1.7-3.6-6-5.2-9.6-3.5c-2.5,1.2-4.2,3.7-4.2,6.5v2.8c0,5,3.5,11.3,10.9,11.3h5l-1.4-9.3
	L31.8,44.3L31.8,44.3z M21.8,39.8c-3,0-5.4-1.8-5.4-2.7s2.4-2.7,5.4-2.7s5.4,1.9,5.4,2.7S24.7,39.8,21.8,39.8L21.8,39.8z"/>
<circle class="st0" cx="21.7" cy="37.1" r="2.8"/>
<path class="st0" d="M27.8,2.4c7.5,0.8,14.5,4.3,17.7,10.8c3.4-1.7,2-7.4-2.8-10.2c-2.8-1.6-5.9-2.6-9.1-2.9
	c-5.7-0.6-11.4,0.6-16.3,3.5C20.7,2.5,24.3,2.1,27.8,2.4z"/>
<path class="st0" d="M52.4,10.2c4.1,6.3,5.9,13.9,2.9,20.5c3.5,1.5,7-3.2,6.1-8.6c-0.5-3.2-1.7-6.2-3.6-8.9
	c-3.1-4.8-7.7-8.4-13-10.4C47.8,4.7,50.4,7.2,52.4,10.2z"/>
<path class="st0" d="M61.8,34.4c-2.3,7.2-7.2,13.3-14.2,15.1c1,3.7,6.8,3.5,10.5-0.6c2.2-2.4,3.8-5.3,4.7-8.4
	c1.8-5.4,1.8-11.3,0-16.7C63.3,27.4,62.9,31,61.8,34.4z"/>
<path class="st0" d="M49.2,56.8c-7,2.7-14.9,2.9-20.6-1.4c-2.2,3.1,1.6,7.5,7.1,7.8c3.2,0.2,6.5-0.4,9.5-1.6
	c5.3-2.1,9.8-5.8,12.8-10.6C55.5,53.5,52.5,55.5,49.2,56.8z"/>
<path class="st0" d="M22.6,60.8c-6.4-4-11.2-10.1-11.3-17.4c-3.8,0.1-5,5.8-1.9,10.4c1.8,2.7,4.2,4.9,7,6.6c4.8,3,10.5,4.4,16.2,3.9
	C29,63.9,25.6,62.7,22.6,60.8z"/>
<path class="st0" d="M3.8,42.9c-0.9-7.5,0.9-15.1,6.5-19.6c-2.5-2.9-7.7-0.3-9.3,5c-1,3.1-1.2,6.4-0.7,9.6c0.7,5.7,3.2,11,7.1,15.1
	C5.4,49.9,4.2,46.4,3.8,42.9z"/>
<path class="st0" d="M5.8,17.2C11,11.8,18,8.3,25.1,9.8c0.7-3.7-4.7-6.1-9.7-4c-3,1.2-5.7,3.1-7.9,5.5c-3.9,4.1-6.4,9.4-7.2,15
	C1.4,22.9,3.3,19.8,5.8,17.2z"/>
<path class="st0" d="M38.6,7.8L27.5,7l2.4,2.2c-5.1,2.6-7.4,8.7-5.3,14c-0.5-4.6,2.8-8.8,7.4-9.6v3.5L38.6,7.8z"/>
<path class="st0" d="M53.9,23.2c-0.1,5-2.7,7.5-6.5,7.2c-3.4-0.3-5.2-4.1-3.8-7.5c1.6-3.9,6.7-4.4,6.1-11.7
	C52.5,14.3,54,19.4,53.9,23.2z"/>
<path class="st0" d="M43.7,48.4H32.1l2.6-2.3h6.4L43.7,48.4z M32.1,49l5.8,6.6l5.8-6.6H32.1L32.1,49z"/>
<path class="st0" d="M87.7,34.2l5.3-8.7c0.9-1.5,2-2.3,3-2.3c1.3,0,1.8,0.5,1.8,1.8c0,0.2,0,0.5-0.1,0.8l-2.6,15.1h-3.4L94,28.3l0,0
	l-5,8.6c-0.4,0.9-1.3,1.6-2.3,1.6c-0.9,0-1.4-0.5-1.6-1.6l-1.4-8.6l0,0l-3.1,12.5h-3.2l4-15.1c0.5-1.8,1.3-2.6,2.8-2.6
	c1,0,1.8,0.7,2,2.2L87.7,34.2z"/>
<path class="st0" d="M101.4,27.7c0.7-4.1,3.5-4.3,6.7-4.3c1.3,0,3.5,0.1,4.7,0.1l-0.4,2.8h-4.8c-2.1,0-2.5,0.4-2.8,2.4l-0.3,2h6.9
	l-0.5,2.8H104l-0.4,2.3c-0.1,0.3-0.1,0.7-0.1,1.1c0,1.1,0.5,1.3,2.1,1.3h4.8l-0.4,2.7c-1.2,0.1-3.6,0.1-4.7,0.1
	c-2.8,0-5.4-0.1-5.4-3.2c0-0.4,0-0.7,0.1-1.1L101.4,27.7z"/>
<path class="st0" d="M127.4,26.3h-4.3L120.8,41h-3.5l2.3-14.7h-4.2l0.5-2.9h12L127.4,26.3z"/>
<path class="st0" d="M124.6,41l7.6-15.3c0.9-1.7,1.9-2.5,3.2-2.5s2.1,0.8,2.4,2.5l2.6,15.3h-3.7l-0.6-4.4h-5.9l-2,4.4L124.6,41
	L124.6,41z M135.7,33.9l-1-7.1l-3.3,7.1H135.7L135.7,33.9z"/>
<path class="st0" d="M154.5,36.3l2-12.9h3.1l-2.4,15.1c-0.3,1.9-1.2,2.7-2.5,2.7s-2-0.6-2.6-2.3L148.4,28l-2.1,13h-3.1l2.5-15.2
	c0.3-1.9,1.2-2.7,2.5-2.7s2,0.6,2.6,2.3L154.5,36.3z"/>
<path class="st0" d="M161.4,35.8c0-1.2,0.1-2.4,0.3-3.6c1-6.4,3-9,8.3-9c4.2,0,5.8,1.6,5.8,5.4c0,1.2-0.1,2.4-0.3,3.6
	c-1,6.4-3,9-8.3,9C163,41.2,161.4,39.6,161.4,35.8z M164.9,35.5c0,1.7,0.6,2.7,2.7,2.7c3.3,0,3.8-2.5,4.4-6c0.2-1.1,0.3-2.2,0.4-3.3
	c0-1.7-0.6-2.7-2.7-2.7c-3.3,0-3.8,2.5-4.4,6C165.1,33.3,164.9,34.4,164.9,35.5L164.9,35.5z"/>
<path class="st0" d="M180.4,23.4h3.5L181.1,41h-3.5L180.4,23.4z"/>
<path class="st0" d="M184.2,41l7.5-15.3c0.8-1.7,1.9-2.5,3.2-2.5s2.1,0.8,2.4,2.5L200,41h-3.7l-0.6-4.4h-5.9l-2,4.4H184.2z
	 M195.3,33.9l-1-7.1l-3.3,7.1L195.3,33.9L195.3,33.9z"/>
<path class="st0" d="M84.5,52.6h-1.1l1-6.2c0.7-0.1,1.3-0.2,2-0.2c1.2,0,2.2,0.2,2.2,1.5c0,0.2,0,0.3,0,0.5c-0.3,1.6-1.3,2-2.7,2
	c-0.3,0-0.7,0-1,0L84.5,52.6z M85.9,49.3c0.7,0.2,1.4-0.3,1.5-1c0-0.1,0-0.1,0-0.2c0-0.1,0-0.2,0-0.3c0-0.6-0.3-0.8-1.2-0.8
	c-0.3,0-0.6,0-0.9,0.1L85,49.3C85.3,49.3,85.6,49.3,85.9,49.3L85.9,49.3z"/>
<path class="st0" d="M90,52.6h-1.1l1-6.2c0.7-0.1,1.3-0.2,2-0.2c1.2,0,2.2,0.2,2.2,1.5c0,0.2,0,0.3,0,0.5c0,0.9-0.7,1.7-1.6,1.9
	l1,2.5h-1.3l-0.9-2.4c-0.3,0-0.7,0-0.9,0L90,52.6z M91.4,49.3c0.7,0.2,1.4-0.3,1.5-1c0,0,0-0.1,0-0.1c0-0.1,0-0.2,0-0.3
	c0-0.6-0.4-0.8-1.2-0.8c-0.3,0-0.6,0-0.9,0.1l-0.3,2.1C90.8,49.3,91.1,49.3,91.4,49.3z"/>
<path class="st0" d="M95,49.4c0.4-2.3,1-3.2,3-3.2c1.5,0,2,0.6,2,1.9c0,0.4,0,0.9-0.1,1.3c-0.4,2.3-1,3.2-3,3.2c-1.5,0-2-0.6-2-1.9
	C94.9,50.3,94.9,49.9,95,49.4z M98.9,48.2c0.1-0.5-0.3-1-0.8-1.1c-0.1,0-0.2,0-0.3,0c-1.3,0-1.5,1-1.7,2.3C96,49.9,96,50.3,96,50.7
	c-0.1,0.5,0.3,1,0.8,1.1c0.1,0,0.2,0,0.3,0c1.3,0,1.5-0.9,1.7-2.3C98.9,49,98.9,48.6,98.9,48.2z"/>
<path class="st0" d="M101.9,52.6h-1.1l1-6.2c0.7-0.1,1.3-0.2,2-0.2c1.2,0,2.2,0.2,2.2,1.5c0,0.2,0,0.3,0,0.5c-0.3,1.6-1.3,2-2.7,2
	c-0.3,0-0.7,0-1,0L101.9,52.6z M103.3,49.3c0.7,0.2,1.4-0.3,1.5-1c0-0.1,0-0.1,0-0.2c0-0.1,0-0.2,0-0.3c0-0.6-0.3-0.8-1.2-0.8
	c-0.3,0-0.6,0-0.9,0.1l-0.3,2.2C102.7,49.3,103,49.3,103.3,49.3L103.3,49.3z"/>
<path class="st0" d="M106.7,49.4c0.4-2.3,1-3.2,3-3.2c1.5,0,2,0.6,2,1.9c0,0.4,0,0.9-0.1,1.3c-0.4,2.3-1,3.2-2.9,3.2
	c-1.5,0-2.1-0.6-2.1-1.9C106.5,50.3,106.6,49.9,106.7,49.4z M110.6,48.2c0.1-0.5-0.3-1-0.8-1.1c-0.1,0-0.2,0-0.3,0
	c-1.3,0-1.5,1-1.7,2.3c-0.1,0.4-0.1,0.8-0.1,1.3c-0.1,0.5,0.3,1,0.8,1.1c0.1,0,0.2,0,0.3,0c1.3,0,1.5-0.9,1.7-2.3
	C110.5,49,110.6,48.6,110.6,48.2z M111.3,44.6l-1.4,1.1h-0.8l1.1-1.1H111.3L111.3,44.6z"/>
<path class="st0" d="M115.1,48.9c0.9,0.3,1.4,0.6,1.4,1.5c0,0.1,0,0.3,0,0.4c-0.2,1.4-1.1,1.8-2.5,1.8c-0.6,0-1.1-0.1-1.7-0.2
	l0.2-0.9c0.5,0.1,1,0.1,1.6,0.1c0.6,0.1,1.2-0.2,1.3-0.8c0,0,0-0.1,0-0.1c0-0.1,0-0.1,0-0.2c-0.1-0.5-0.5-0.8-1-0.8
	c-0.9-0.3-1.5-0.6-1.5-1.4c0-0.1,0-0.3,0-0.4c0.2-1.3,1-1.8,2.5-1.8c0.6,0,1.1,0.1,1.7,0.2l-0.2,0.8c-0.4-0.1-0.9-0.1-1.3-0.1
	c-0.5,0-1.4,0-1.5,0.7c0,0.1,0,0.1,0,0.2C114,48.6,114.4,48.7,115.1,48.9z"/>
<path class="st0" d="M119.5,46.3l-1,6.3h-1.1l1-6.3H119.5z"/>
<path class="st0" d="M120.1,47.2l0.1-0.9h4.2l-0.1,0.9h-1.6l-0.9,5.4h-1.1l0.9-5.4H120.1z"/>
<path class="st0" d="M124.5,49.4c0.4-2.3,1-3.2,3-3.2c1.5,0,2,0.6,2,1.9c0,0.4,0,0.9-0.1,1.3c-0.4,2.3-1,3.2-3,3.2
	c-1.5,0-2-0.6-2-1.9C124.3,50.3,124.4,49.9,124.5,49.4z M128.4,48.2c0.1-0.5-0.3-1-0.8-1.1c-0.1,0-0.2,0-0.3,0c-1.3,0-1.5,1-1.7,2.3
	c-0.1,0.4-0.1,0.8-0.1,1.3c-0.1,0.5,0.3,1,0.8,1.1c0.1,0,0.2,0,0.3,0c1.3,0,1.5-0.9,1.7-2.3C128.4,49,128.4,48.6,128.4,48.2z"/>
<path class="st0" d="M136.9,51.2l0.8-4.9h1l-0.9,5.6c0,0.4-0.3,0.8-0.8,0.8c0,0,0,0,0,0c-0.4,0-0.8-0.3-0.8-0.7l-1.5-4.3l-0.8,4.9
	h-1l0.9-5.5c0-0.4,0.3-0.8,0.8-0.8c0,0,0,0,0,0c0.4,0,0.8,0.3,0.8,0.7L136.9,51.2z"/>
<path class="st0" d="M139.5,49.4c0.4-2.3,1-3.2,3-3.2c1.5,0,2,0.6,2,1.9c0,0.4,0,0.9-0.1,1.3c-0.4,2.3-1,3.2-3,3.2
	c-1.5,0-2-0.6-2-1.9C139.4,50.3,139.4,49.9,139.5,49.4z M143.4,48.2c0.1-0.5-0.3-1-0.8-1.1c-0.1,0-0.2,0-0.3,0c-1.3,0-1.5,1-1.7,2.3
	c-0.1,0.4-0.1,0.8-0.1,1.3c-0.1,0.5,0.3,1,0.8,1.1c0.1,0,0.2,0,0.3,0c1.3,0,1.5-0.9,1.7-2.3C143.4,49,143.4,48.6,143.4,48.2z"/>
<path class="st0" d="M147.9,48.9c0.9,0.3,1.4,0.6,1.4,1.5c0,0.1,0,0.3,0,0.4c-0.2,1.4-1.1,1.8-2.5,1.8c-0.6,0-1.1-0.1-1.7-0.2
	l0.2-0.9c0.5,0.1,1,0.1,1.6,0.1c0.6,0.1,1.2-0.2,1.3-0.8c0,0,0,0,0,0c0-0.1,0-0.1,0-0.2c-0.1-0.5-0.5-0.8-1-0.8
	c-0.9-0.3-1.5-0.6-1.5-1.4c0-0.1,0-0.3,0-0.4c0.2-1.3,1-1.8,2.5-1.8c0.6,0,1.1,0.1,1.7,0.2l-0.2,0.8c-0.4-0.1-0.9-0.1-1.3-0.1
	c-0.5,0-1.4,0-1.5,0.7c0,0.1,0,0.1,0,0.2C146.8,48.6,147.2,48.7,147.9,48.9z"/>
<path class="st0" d="M156.8,51.2l0.8-4.9h1l-0.9,5.6c0,0.4-0.3,0.8-0.8,0.8c0,0,0,0,0,0c-0.4,0-0.8-0.3-0.8-0.7l-1.5-4.3l-0.8,4.9
	h-1l0.9-5.5c0-0.4,0.3-0.8,0.8-0.8c0,0,0,0,0,0c0.4,0,0.8,0.3,0.8,0.7L156.8,51.2z"/>
<path class="st0" d="M163,51.7l-0.1,0.8c-0.5,0-1.2,0-1.6,0c-1,0-1.9,0-1.9-1.1c0-0.1,0-0.3,0-0.4l0.5-3.4c0.2-1.4,1.3-1.5,2.3-1.5
	c0.4,0,1.2,0,1.6,0l-0.1,0.8H162c-0.5-0.1-1,0.1-1.1,0.6c0,0.1,0,0.3,0,0.4l-0.1,0.8h2.5l-0.1,0.9h-2.5l-0.1,0.9c0,0.1,0,0.3,0,0.4
	c0,0.4,0.2,0.5,0.9,0.5L163,51.7L163,51.7z"/>
<path class="st0" d="M169.2,47.2c-0.5-0.1-1-0.1-1.6-0.1c-1.6,0-1.8,1-2,2.3c-0.1,0.4-0.1,0.7-0.1,1.1c0,0.7,0.3,1.2,1.4,1.2
	c0.7,0,0.8-0.2,0.9-0.6L168,50h-1.1l0.1-0.8h2.1l-0.4,2.4c-0.2,1.1-1.1,1.1-2.3,1.1c-1.6,0-2.1-0.6-2.1-1.9c0-0.4,0-0.9,0.1-1.3
	c0.4-2.3,1-3.2,3-3.2c0.6,0,1.3,0,1.9,0.2L169.2,47.2z"/>
<path class="st0" d="M170.3,49.4c0.4-2.3,1-3.2,3-3.2c1.5,0,2,0.6,2,1.9c0,0.4,0,0.9-0.1,1.3c-0.4,2.3-1,3.2-2.9,3.2
	c-1.5,0-2.1-0.6-2.1-1.9C170.2,50.3,170.2,49.9,170.3,49.4z M174.3,48.2c0.1-0.5-0.3-1-0.8-1.1c-0.1,0-0.2,0-0.3,0
	c-1.3,0-1.5,1-1.7,2.3c-0.1,0.4-0.1,0.8-0.1,1.3c-0.1,0.5,0.3,1,0.8,1.1c0.1,0,0.2,0,0.3,0c1.3,0,1.5-0.9,1.7-2.3
	C174.2,49,174.2,48.6,174.3,48.2z M175,44.6l-1.4,1.1h-0.8l1.1-1.1H175L175,44.6z"/>
<path class="st0" d="M179.5,47.1c-1.6,0-1.8,1-2,2.3c-0.1,0.4-0.1,0.7-0.1,1.1c0,0.7,0.3,1.2,1.4,1.2c0.4,0,0.8,0,1.2-0.1v0.8
	c-0.5,0.1-1,0.2-1.6,0.2c-1.6,0-2.1-0.6-2.1-1.9c0-0.4,0-0.9,0.1-1.3c0.4-2.2,1-3.2,3-3.2c0.5,0,1,0.1,1.5,0.2l-0.2,0.8
	C180.4,47.1,179.9,47.1,179.5,47.1z"/>
<path class="st0" d="M183.3,46.3l-1,6.3h-1.1l1-6.3H183.3z"/>
<path class="st0" d="M184.2,49.4c0.4-2.3,1-3.2,3-3.2c1.5,0,2,0.6,2,1.9c0,0.4,0,0.9-0.1,1.3c-0.4,2.3-1,3.2-3,3.2
	c-1.5,0-2-0.6-2-1.9C184,50.3,184.1,49.9,184.2,49.4z M188.1,48.2c0.1-0.5-0.3-1-0.8-1.1c-0.1,0-0.2,0-0.3,0c-1.3,0-1.5,1-1.7,2.3
	c-0.1,0.4-0.1,0.8-0.1,1.3c-0.1,0.5,0.3,1,0.8,1.1c0.1,0,0.2,0,0.3,0c1.3,0,1.5-0.9,1.7-2.3C188,49,188.1,48.6,188.1,48.2
	L188.1,48.2z"/>
<path class="st0" d="M192.5,48.9c0.9,0.3,1.4,0.6,1.4,1.5c0,0.1,0,0.3,0,0.4c-0.2,1.4-1.1,1.8-2.5,1.8c-0.6,0-1.1-0.1-1.7-0.2
	l0.2-0.9c0.5,0.1,1,0.1,1.6,0.1c0.6,0.1,1.2-0.2,1.3-0.8c0,0,0-0.1,0-0.1c0-0.1,0-0.1,0-0.2c-0.1-0.5-0.5-0.8-1-0.8
	c-0.9-0.3-1.5-0.6-1.5-1.4c0-0.1,0-0.3,0-0.4c0.2-1.3,1-1.8,2.5-1.8c0.6,0,1.1,0.1,1.7,0.2l-0.2,0.8c-0.4-0.1-0.9-0.1-1.3-0.1
	c-0.5,0-1.4,0-1.5,0.7c0,0.1,0,0.1,0,0.2C191.4,48.6,191.9,48.7,192.5,48.9z"/>
</svg>
